<svg width="40" height="40" viewBox="0 0 40 40" fill="none" xmlns="http://www.w3.org/2000/svg">
  <!-- Art Deco Clock Icon -->
  <!-- Outer decorative frame -->
  <path d="M20 2 L28 6 L30 14 L38 18 L38 22 L30 26 L28 34 L20 38 L12 34 L10 26 L2 22 L2 18 L10 14 L12 6 L20 2 Z" fill="#2c3e50" stroke="#1a252f" stroke-width="0.5"/>

  <!-- Inner circle -->
  <circle cx="20" cy="20" r="14" fill="#f8f9fa" stroke="#2c3e50" stroke-width="1.5"/>

  <!-- Clock markers (Art Deco style) -->
  <line x1="20" y1="8" x2="20" y2="11" stroke="#2c3e50" stroke-width="2" stroke-linecap="round"/>
  <line x1="32" y1="20" x2="29" y2="20" stroke="#2c3e50" stroke-width="2" stroke-linecap="round"/>
  <line x1="20" y1="32" x2="20" y2="29" stroke="#2c3e50" stroke-width="2" stroke-linecap="round"/>
  <line x1="8" y1="20" x2="11" y2="20" stroke="#2c3e50" stroke-width="2" stroke-linecap="round"/>

  <!-- Hour hand (pointing to ~10) -->
  <line x1="20" y1="20" x2="16" y2="14" stroke="#c0392b" stroke-width="2.5" stroke-linecap="round"/>

  <!-- Minute hand (pointing to ~2) -->
  <line x1="20" y1="20" x2="26" y2="15" stroke="#27ae60" stroke-width="2" stroke-linecap="round"/>

  <!-- Center dot -->
  <circle cx="20" cy="20" r="2" fill="#2c3e50"/>

  <!-- Art Deco rays -->
  <path d="M20 2 L20 0" stroke="#d4af37" stroke-width="1.5" opacity="0.7"/>
  <path d="M28 6 L30 3" stroke="#d4af37" stroke-width="1.5" opacity="0.7"/>
  <path d="M12 6 L10 3" stroke="#d4af37" stroke-width="1.5" opacity="0.7"/>
  <path d="M38 18 L40 18" stroke="#d4af37" stroke-width="1.5" opacity="0.7"/>
  <path d="M38 22 L40 22" stroke="#d4af37" stroke-width="1.5" opacity="0.7"/>
  <path d="M2 18 L0 18" stroke="#d4af37" stroke-width="1.5" opacity="0.7"/>
  <path d="M2 22 L0 22" stroke="#d4af37" stroke-width="1.5" opacity="0.7"/>
</svg>
